<svg preserveAspectRatio="none" width="100%" height="100%" overflow="visible" style="display: block;" viewBox="0 0 66.1373 66.1373" fill="none" xmlns="http://www.w3.org/2000/svg">
<path id="Vector" fill-rule="evenodd" clip-rule="evenodd" d="M0 33.0686C0 17.4801 0 9.68581 4.84125 4.84125C9.68911 0 17.4801 0 33.0686 0C48.6572 0 56.4515 0 61.2927 4.84125C66.1373 9.68911 66.1373 17.4801 66.1373 33.0686C66.1373 48.6572 66.1373 56.4515 61.2927 61.2927C56.4548 66.1373 48.6572 66.1373 33.0686 66.1373C17.4801 66.1373 9.68581 66.1373 4.84125 61.2927C0 56.4548 0 48.6572 0 33.0686ZM46.0812 11.8783C46.5374 12.0642 46.9279 12.3817 47.203 12.7904C47.478 13.1992 47.6251 13.6806 47.6255 14.1732V23.1514C47.6255 23.8091 47.3642 24.44 46.899 24.9051C46.4339 25.3702 45.8031 25.6315 45.1453 25.6315H36.3755C35.8874 25.6318 35.41 25.488 35.0032 25.2182C34.5964 24.9484 34.2783 24.5645 34.0887 24.1147C33.8991 23.6649 33.8465 23.1691 33.9374 22.6895C34.0283 22.2099 34.2587 21.7678 34.5997 21.4186L37.1196 18.8392C34.6858 18.0914 32.0925 18.0321 29.627 18.6677C27.1616 19.3033 24.9202 20.6091 23.1514 22.4404C17.6355 28.0852 17.6355 37.2651 23.1514 42.9099C24.4374 44.241 25.9782 45.2996 27.682 46.0226C29.3858 46.7456 31.2178 47.1182 33.0686 47.1182C34.9195 47.1182 36.7515 46.7456 38.4553 46.0226C40.1591 45.2996 41.6999 44.241 42.9859 42.9099C45.1571 40.6821 46.5572 37.8171 46.9806 34.7353C47.1724 33.353 48.2703 32.189 49.6658 32.189C51.0084 32.189 52.1195 33.2638 51.9905 34.5997C51.5696 39.0338 49.6442 43.1903 46.5342 46.3788C44.7862 48.1828 42.6934 49.6172 40.3803 50.5968C38.0671 51.5764 35.5807 52.0812 33.0686 52.0812C30.5566 52.0812 28.0702 51.5764 25.757 50.5968C23.4439 49.6172 21.3511 48.1828 19.6031 46.3788C12.2056 38.8061 12.2056 26.5475 19.6031 18.9748C22.3021 16.1889 25.7988 14.3087 29.6111 13.5933C33.4235 12.8778 37.3639 13.3623 40.8894 14.9801L43.3695 12.4404C43.7144 12.0877 44.1566 11.8458 44.6396 11.7456C45.1226 11.6455 45.6245 11.6917 46.0812 11.8783Z" fill="var(--fill-0, #A386FF)"/>
</svg>
