<svg preserveAspectRatio="none" width="100%" height="100%" overflow="visible" style="display: block;" viewBox="0 0 46.2961 46.2907" fill="none" xmlns="http://www.w3.org/2000/svg">
<path id="Vector" d="M46.2961 11.8028C46.2956 11.1537 46.104 10.5191 45.7453 9.97811C45.3866 9.43712 44.8766 9.01365 44.2789 8.7605L24.4377 0.261856C24.0297 0.089049 23.5911 0 23.1481 0C22.705 0 22.2664 0.089049 21.8584 0.261856L2.01719 8.7605C1.41948 9.01365 0.909489 9.43712 0.550786 9.97811C0.192082 10.5191 0.000529023 11.1537 0 11.8028V34.4879C0.000529023 35.137 0.192082 35.7716 0.550786 36.3126C0.909489 36.8536 1.41948 37.2771 2.01719 37.5302L21.8584 46.0289C22.2664 46.2017 22.705 46.2907 23.1481 46.2907C23.5911 46.2907 24.0297 46.2017 24.4377 46.0289L44.2789 37.5302C44.8766 37.2771 45.3866 36.8536 45.7453 36.3126C46.104 35.7716 46.2956 35.137 46.2961 34.4879V11.8028ZM23.1481 6.90866L34.5898 11.8028L23.1481 16.73L11.7063 11.8028L23.1481 6.90866ZM6.61373 16.8293L19.8412 22.484V37.9601L6.61373 32.3054V16.8293ZM26.4549 37.9601V22.484L39.6824 16.8293V32.3054L26.4549 37.9601Z" fill="var(--fill-0, #F7F5F5)"/>
</svg>
