<svg preserveAspectRatio="none" width="100%" height="100%" overflow="visible" style="display: block;" viewBox="0 0 79.3648 79.3648" fill="none" xmlns="http://www.w3.org/2000/svg">
<path id="Vector" d="M33.0686 75.165C31.7881 74.6384 30.6536 73.8102 29.7618 72.751H9.92059C9.04356 72.751 8.20244 72.4026 7.58229 71.7825C6.96213 71.1623 6.61373 70.3212 6.61373 69.4442V17.361C6.61373 17.1418 6.70083 16.9315 6.85587 16.7765C7.01091 16.6214 7.22119 16.5343 7.44045 16.5343H71.9243C72.1436 16.5343 72.3538 16.6214 72.5089 16.7765C72.6639 16.9315 72.751 17.1418 72.751 17.361V34.4575L79.3648 37.2684V9.92059C79.3648 7.28949 78.3196 4.76615 76.4591 2.90567C74.5986 1.0452 72.0753 0 69.4442 0L9.92059 0C7.28949 0 4.76615 1.0452 2.90567 2.90567C1.0452 4.76615 0 7.28949 0 9.92059L0 69.4442C0 72.0753 1.0452 74.5986 2.90567 76.4591C4.76615 78.3196 7.28949 79.3648 9.92059 79.3648H42.9892L33.0686 75.165ZM34.7221 4.9603C35.5991 4.9603 36.4402 5.3087 37.0604 5.92886C37.6805 6.54901 38.0289 7.39013 38.0289 8.26716C38.0289 9.1442 37.6805 9.98531 37.0604 10.6055C36.4402 11.2256 35.5991 11.574 34.7221 11.574C33.845 11.574 33.0039 11.2256 32.3838 10.6055C31.7636 9.98531 31.4152 9.1442 31.4152 8.26716C31.4152 7.39013 31.7636 6.54901 32.3838 5.92886C33.0039 5.3087 33.845 4.9603 34.7221 4.9603ZM23.1481 4.9603C24.0251 4.9603 24.8662 5.3087 25.4864 5.92886C26.1065 6.54901 26.4549 7.39013 26.4549 8.26716C26.4549 9.1442 26.1065 9.98531 25.4864 10.6055C24.8662 11.2256 24.0251 11.574 23.1481 11.574C22.271 11.574 21.4299 11.2256 20.8097 10.6055C20.1896 9.98531 19.8412 9.1442 19.8412 8.26716C19.8412 7.39013 20.1896 6.54901 20.8097 5.92886C21.4299 5.3087 22.271 4.9603 23.1481 4.9603ZM11.574 4.9603C12.4511 4.9603 13.2922 5.3087 13.9123 5.92886C14.5325 6.54901 14.8809 7.39013 14.8809 8.26716C14.8809 9.1442 14.5325 9.98531 13.9123 10.6055C13.2922 11.2256 12.4511 11.574 11.574 11.574C10.697 11.574 9.85588 11.2256 9.23572 10.6055C8.61556 9.98531 8.26716 9.1442 8.26716 8.26716C8.26716 7.39013 8.61556 6.54901 9.23572 5.92886C9.85588 5.3087 10.697 4.9603 11.574 4.9603Z" fill="var(--fill-0, #F7F5F5)"/>
</svg>
