<svg preserveAspectRatio="none" width="100%" height="100%" overflow="visible" style="display: block;" viewBox="0 0 64.0554 64.0554" fill="none" xmlns="http://www.w3.org/2000/svg">
<path id="Vector" d="M22.107 25.4139V58.4831M60.1365 23.7604H3.9189M2.26544 23.4297C2.26544 16.0222 2.26544 12.3185 3.70726 9.48775C4.97542 6.99892 6.99892 4.97542 9.48775 3.70726C12.3185 2.26544 16.0222 2.26544 23.4297 2.26544H40.6257C48.0332 2.26544 51.737 2.26544 54.5677 3.70726C57.0565 4.97542 59.08 6.99892 60.3482 9.48775C61.79 12.3185 61.79 16.0222 61.79 23.4297V40.6257C61.79 48.0332 61.79 51.737 60.3482 54.5677C59.08 57.0565 57.0565 59.08 54.5677 60.3482C51.737 61.79 48.0332 61.79 40.6257 61.79H23.4297C16.0222 61.79 12.3185 61.79 9.48775 60.3482C6.99892 59.08 4.97542 57.0565 3.70726 54.5677C2.26544 51.737 2.26544 48.0332 2.26544 40.6257V23.4297Z" stroke="var(--stroke-0, #F7F5F5)" stroke-width="4.53088" stroke-linecap="round" stroke-linejoin="round"/>
</svg>
