<?xml version="1.0" encoding="UTF-8"?>
<svg version="1.1" xmlns="http://www.w3.org/2000/svg" width="1563" height="1563">
<path d="M0 0 C2.8972651 3.45369349 4.59778534 7.28391481 6.35546875 11.390625 C6.66196854 12.09523865 6.96846832 12.79985229 7.28425598 13.52581787 C8.25697288 15.76509598 9.22232392 18.00746281 10.1875 20.25 C10.84782282 21.77364755 11.5086249 23.2970875 12.16992188 24.8203125 C13.78641847 28.54413652 15.39290622 32.27205194 17 36 C21.95 36.33 26.9 36.66 32 37 C31.86335938 38.97871094 31.72671875 40.95742187 31.5859375 42.99609375 C30.47161557 67.25947553 37.85483183 85.21784821 48.41992188 106.69287109 C52.29010249 114.59021511 55.84429939 122.63027766 59.43435669 130.65762329 C61.4133939 135.07044765 63.41734906 139.47193059 65.41796875 143.875 C69.6338634 153.16863101 73.79931638 162.48403888 77.9375 171.8125 C78.25625092 172.53098114 78.57500183 173.24946228 78.90341187 173.98971558 C80.55757195 177.71915805 82.21064011 181.44908344 83.86328125 185.17919922 C87.88158413 194.24732244 91.90987966 203.3110124 95.9375 212.375 C96.36183319 213.33008453 96.78616638 214.28516907 97.22335815 215.26919556 C103.30366671 228.95346595 109.40575937 242.62780043 115.5274353 256.29360962 C121.89669836 270.51343431 128.22683608 284.7504782 134.55029297 298.99072266 C140.00973536 311.28428717 145.48716776 323.56924432 151.00024414 335.83886719 C156.36374788 347.78704085 161.67027352 359.76044304 166.98284912 371.73132324 C173.35301913 386.08210456 179.77824754 400.40701654 186.2388916 414.71725464 C192.27068915 428.08483009 198.18496341 441.50118799 204.0581665 454.93908691 C210.15867298 468.88964403 216.39742539 482.77326954 222.69747925 496.63470459 C228.56390645 509.5475161 234.32297575 522.50286426 240 535.5 C246.10864832 549.48361442 252.31745747 563.41744315 258.625 577.3125 C264.71513558 590.72877081 270.77094609 604.15880575 276.75 617.625 C277.070755 618.34700592 277.39151001 619.06901184 277.72198486 619.81289673 C279.51916521 623.859672 281.31079132 627.90885079 283.09790039 631.96008301 C284.06317094 634.1428484 285.03447832 636.32287741 286.00585938 638.50292969 C286.65510386 639.96802987 287.30419711 641.43319707 287.953125 642.8984375 C288.25909607 643.58177155 288.56506714 644.26510559 288.88031006 644.96914673 C291 649.77300509 291 649.77300509 291 652 C291.66 652 292.32 652 293 652 C293.38829735 650.73493874 293.38829735 650.73493874 293.78443909 649.44432068 C295.08002588 645.77324477 296.69285991 642.35524127 298.44897461 638.89086914 C298.79247955 638.20517349 299.1359845 637.51947784 299.48989868 636.81300354 C300.62370864 634.55185685 301.76308567 632.29356213 302.90234375 630.03515625 C303.70309496 628.43993985 304.50342607 626.8445125 305.30335999 625.24888611 C307.41483301 621.03923486 309.53072818 616.83182376 311.64794922 612.62506104 C315.00420822 605.95559236 318.35537645 599.28357335 321.70349312 592.61001396 C322.85490918 590.31711613 324.0091778 588.02567326 325.1638031 585.73439026 C329.32250854 577.46358072 333.37847651 569.15043547 337.35571289 560.79077148 C342.41108116 550.1698885 347.62313916 539.63363166 352.90141296 529.12200928 C354.461578 526.01480964 356.01898287 522.90623875 357.57580566 519.79736328 C361.43805361 512.0860163 365.30473764 504.37689603 369.17132568 496.66772461 C372.45871437 490.11291527 375.74432825 483.55722177 379.02775574 477.00042725 C380.53849835 473.98527181 382.05170225 470.97136124 383.56506348 467.95751953 C388.29513608 458.52210777 392.95328988 449.05912933 397.48632812 439.52734375 C402.55552757 428.86868558 407.79075636 418.2992317 413.08660889 407.75161743 C414.68037495 404.57720598 416.27138781 401.40142657 417.86181641 398.2253418 C421.80754233 390.34704454 425.75770187 382.47097257 429.70776367 374.59484863 C433.06560972 367.89911796 436.42168484 361.20250499 439.77557373 354.50479126 C441.31955663 351.4231593 442.86599952 348.3427712 444.41259766 345.26245117 C449.67925963 334.75608272 454.83592947 324.20597993 459.88335419 313.59257507 C464.43546445 304.0416243 469.15373991 294.57694629 473.90141296 285.12200928 C475.461578 282.01480964 477.01898287 278.90623875 478.57580566 275.79736328 C482.43805361 268.0860163 486.30473764 260.37689603 490.17132568 252.66772461 C493.45871437 246.11291527 496.74432825 239.55722177 500.02775574 233.00042725 C501.53849835 229.98527181 503.05170225 226.97136124 504.56506348 223.95751953 C508.84831113 215.41198968 513.08691145 206.85407763 517.16578865 198.20878983 C522.17288057 187.60194333 527.55587653 177.30219305 533.28046799 167.06772614 C557.59592769 123.31517036 575.89753243 87.96059255 569 37 C578.57 37 588.14 37 598 37 C598.66 35.02 599.32 33.04 600 31 C600.61580592 29.62295914 601.26190389 28.25883427 601.9453125 26.9140625 C602.29980469 26.21152344 602.65429688 25.50898438 603.01953125 24.78515625 C603.38433594 24.07230469 603.74914063 23.35945313 604.125 22.625 C604.49753906 21.88894531 604.87007812 21.15289062 605.25390625 20.39453125 C606.1656122 18.59449642 607.08229932 16.79698598 608 15 C612.07411207 16.15517784 615.33342276 17.7151817 618.8492415 20.07019722 C647.06599779 38.89289078 676.27812247 38.65471491 708.96531751 38.16076292 C716.50970479 38.05064162 724.0530333 38.05242931 731.5980732 38.05860243 C745.04362042 38.06678735 758.48726647 37.9914366 771.93212891 37.8605957 C784.96213451 37.73397763 797.9913784 37.64875989 811.02197266 37.61645508 C812.24689055 37.61334341 812.24689055 37.61334341 813.49655426 37.61016887 C819.8866937 37.59425058 826.27683756 37.58066889 832.66698384 37.56782305 C863.77955628 37.50468538 894.88732182 37.23849873 926 37 C926 81.88 926 126.76 926 173 C926.66 173 927.32 173 928 173 C927.75654076 173.75423897 927.75654076 173.75423897 927.50816316 174.52371509 C926.8174539 177.88954926 926.86063271 181.20048782 926.86938947 184.6205585 C926.86741696 185.3971796 926.86544445 186.1738007 926.86341216 186.97395577 C926.85798031 189.59701654 926.85969794 192.22002485 926.8613348 194.84309006 C926.85888865 196.74248312 926.85600516 198.64187566 926.85272202 200.54126745 C926.84492057 205.79635572 926.84337874 211.05143055 926.8427946 216.3065239 C926.84107115 222.01008332 926.83358896 227.71363554 926.82681805 233.41719079 C926.81573949 243.42509464 926.80838088 253.43299595 926.80341911 263.44090462 C926.79808178 274.1820842 926.79063244 284.92325836 926.78049088 295.66443443 C926.77985224 296.34219347 926.77921361 297.01995252 926.77855562 297.71824971 C926.77528934 301.17398501 926.77198761 304.62972027 926.76867336 308.08545553 C926.74474065 333.11549796 926.72563426 358.14554222 926.70907402 383.17559052 C926.6926567 407.96830206 926.67418201 432.76101067 926.65294075 457.55371857 C926.65195316 458.70807478 926.65195316 458.70807478 926.65094561 459.88575132 C926.64493122 466.91445171 926.63889141 473.94315208 926.63282111 480.97185243 C926.6177304 498.4454999 926.60295845 515.91914764 926.58840275 533.39279556 C926.58773961 534.18856368 926.58707647 534.9843318 926.58639324 535.8042141 C926.55415233 574.5268635 926.52558367 613.2495155 926.49731445 651.97216797 C926.48750066 665.41212974 926.47767064 678.85209151 926.46777344 692.29205322 C926.46685274 693.5423512 926.46685274 693.5423512 926.46591344 694.81790773 C926.4373647 733.55665723 926.40620962 772.29540451 926.37438093 811.03415144 C926.37231498 813.54867109 926.37025016 816.06319074 926.36818558 818.57771039 C926.3545018 835.24136926 926.34077307 851.90502809 926.32701423 868.56868689 C926.29963727 901.72607982 926.27252445 934.88347297 926.24559305 968.04086626 C926.24431047 969.6199573 926.2430277 971.19904835 926.24174474 972.77813939 C926.20222347 1021.42311659 926.16389447 1070.06809461 926.1268158 1118.71307373 C926.1253193 1120.67549076 926.1238228 1122.63790778 926.1223262 1124.6003248 C926.08082539 1179.06688266 926.04057503 1233.53344145 926 1288 C808.19 1288 690.38 1288 569 1288 C568.67 1160.29 568.34 1032.58 568 901 C550.29210323 936.39832106 550.29210323 936.39832106 533 972 C527.07440948 983.96068606 527.07440948 983.96068606 525.04667664 987.99429321 C523.14786992 991.77448163 521.25086789 995.55555618 519.35652161 999.33798218 C516.30248888 1005.4348131 513.24524237 1011.53002892 510.1875 1017.625 C506.61932025 1024.73757164 503.05254253 1031.85083984 499.48913002 1038.96580124 C498.08061921 1041.7764324 496.66967318 1044.58583143 495.2585907 1047.39517212 C493.18424825 1051.52949106 491.1244105 1055.67067589 489.07854843 1059.81916046 C488.38110957 1061.22939129 487.67944698 1062.63754454 486.9727211 1064.04314423 C486.07184169 1065.83776796 485.19009469 1067.64196024 484.30981445 1069.44677734 C483.59303276 1070.89689713 483.59303276 1070.89689713 482.86177063 1072.37631226 C481.4403609 1076.7038388 482.84592484 1079.9937906 484.62304688 1084.01391602 C484.95429565 1084.76983536 485.28554443 1085.5257547 485.62683105 1086.30458069 C485.98716431 1087.11285812 486.34749756 1087.92113556 486.71875 1088.75390625 C487.0955188 1089.60943588 487.4722876 1090.46496552 487.86047363 1091.34642029 C489.06896554 1094.08720943 490.28444247 1096.82483834 491.5 1099.5625 C492.28690209 1101.34550735 493.07336439 1103.12870885 493.859375 1104.91210938 C494.64561444 1106.692805 495.43207275 1108.473404 496.21875 1110.25390625 C496.80184937 1111.57474716 496.80184937 1111.57474716 497.39672852 1112.92227173 C499.43847115 1117.5315951 501.51233175 1122.12294842 503.63671875 1126.69482422 C504.05924927 1127.61102036 504.48177979 1128.52721649 504.91711426 1129.47117615 C505.72679718 1131.2231195 506.54442719 1132.97141771 507.37097168 1134.71546936 C507.73130493 1135.49764328 508.09163818 1136.2798172 508.46289062 1137.08569336 C508.78471313 1137.77142929 509.10653564 1138.45716522 509.43811035 1139.16368103 C510 1141 510 1141 509 1144 C507.40016174 1145.019104 507.40016174 1145.019104 505.29516602 1145.93847656 C504.10669319 1146.4670652 504.10669319 1146.4670652 502.89421082 1147.0063324 C502.02291031 1147.38064896 501.1516098 1147.75496552 500.25390625 1148.140625 C499.34792191 1148.53915176 498.44193756 1148.93767853 497.50849915 1149.34828186 C495.55145265 1150.20778647 493.59237418 1151.06267583 491.63153076 1151.91348267 C488.55078627 1153.25510116 485.48085075 1154.61909408 482.41259766 1155.98901367 C473.75649249 1159.83831521 465.11524145 1163.66028213 456.23088074 1166.95675659 C453.14369564 1168.10329461 450.07833986 1169.30295688 447.01242065 1170.50500488 C445.61746449 1171.0320047 444.21126223 1171.53038707 442.79446411 1171.9954834 C435.8128023 1174.29072596 430.70935466 1177.01432867 427.30854797 1183.71588135 C426.44164184 1185.60336493 425.59409082 1187.49982145 424.76293945 1189.40332031 C423.80914546 1191.48999088 422.85348968 1193.57581129 421.89611816 1195.6608429 C421.41568054 1196.72019358 420.93524292 1197.77954426 420.44024658 1198.87099648 C418.23973219 1203.65171762 415.89121402 1208.35421732 413.52856445 1213.05639648 C413.07154302 1213.97049412 412.61452158 1214.88459175 412.14365101 1215.82638931 C410.71883643 1218.6756176 409.29110443 1221.52337215 407.86328125 1224.37109375 C406.84749411 1226.40079522 405.83188814 1228.43058737 404.81645203 1230.46046448 C402.18637029 1235.71687049 399.55388607 1240.97206945 396.9208374 1246.22698975 C394.21720942 1251.62388305 391.51594121 1257.0219572 388.81445312 1262.41992188 C383.54523123 1272.94774834 378.27346146 1283.4742966 373 1294 C366.73566345 1292.09904502 361.02232933 1289.69382001 355.2265625 1286.66455078 C353.98806549 1286.02756004 353.98806549 1286.02756004 352.72454834 1285.37770081 C350.94733267 1284.46346661 349.17140667 1283.54672174 347.39666748 1282.62768936 C343.61568916 1280.67370826 339.82320168 1278.74258498 336.03128052 1276.80994987 C328.98679989 1273.21928505 321.94733769 1269.61956699 314.92773438 1265.98046875 C310.02852394 1263.44172969 305.11512909 1260.93261719 300.19110107 1258.442379 C298.32290576 1257.49069071 296.46019609 1256.52815159 294.60333252 1255.55453873 C292.00665664 1254.19458934 289.39349517 1252.8732813 286.7734375 1251.55908203 C286.01577087 1251.15092758 285.25810425 1250.74277313 284.47747803 1250.32225037 C280.25906401 1248.2605512 277.77401876 1247.68469293 273.23600769 1249.15838623 C271.81249996 1249.74508453 270.39849157 1250.35594217 269 1251 C268.1634639 1251.3318631 267.3269278 1251.6637262 266.46504211 1252.00564575 C265.80022324 1252.30300629 265.13540436 1252.60036682 264.45043945 1252.90673828 C263.67152344 1253.25264008 262.89260742 1253.59854187 262.09008789 1253.95492554 C261.2727417 1254.32300323 260.45539551 1254.69108093 259.61328125 1255.0703125 C258.72914551 1255.46441315 257.84500977 1255.85851379 256.93408203 1256.26455688 C254.05846953 1257.54748921 251.18552434 1258.83628365 248.3125 1260.125 C246.31618345 1261.01636294 244.31968057 1261.90730871 242.32299805 1262.79785156 C233.34289447 1266.80576692 224.37065245 1270.83111415 215.40266418 1274.86605835 C211.8734202 1276.45372696 208.34321859 1278.03926107 204.81307983 1279.62493896 C202.34244518 1280.73652706 199.87391669 1281.85269652 197.40551758 1282.96923828 C195.91234574 1283.64111412 194.41910444 1284.31283561 192.92578125 1284.984375 C192.24773438 1285.29275299 191.5696875 1285.60113098 190.87109375 1285.91885376 C186.22722498 1288 186.22722498 1288 184 1288 C177.73379296 1274.74793276 171.56478707 1261.45591164 165.72027588 1248.01177979 C163.84131936 1243.69040027 161.92870466 1239.39090342 159.94238281 1235.11767578 C156.30187688 1227.19798186 152.95693193 1219.59927246 151.0357666 1211.07041931 C147.40208636 1195.10263373 141.97028944 1181.78184104 127.72496986 1172.75131702 C108.08045661 1160.8894657 86.88476103 1151.40659041 65.82458496 1142.36636353 C65.03404032 1142.02369729 64.24349567 1141.68103106 63.42899513 1141.327981 C61.95353505 1140.69058425 60.47409173 1140.0623013 58.99017906 1139.44483852 C57.29012353 1138.70943061 55.6386394 1137.86364027 54 1137 C53 1134 53 1134 54.10131836 1131.24992371 C54.67503174 1130.13772964 55.24874512 1129.02553558 55.83984375 1127.87963867 C56.15341827 1127.26460983 56.4669928 1126.64958099 56.79006958 1126.01591492 C57.47276455 1124.67961656 58.15997149 1123.345616 58.85110474 1122.01366234 C59.94476716 1119.90395015 61.02484008 1117.78779218 62.10131836 1115.66926575 C65.16455605 1109.64682697 68.25217353 1103.63700738 71.34863281 1097.6315918 C73.2413161 1093.95855518 75.11826718 1090.27781926 76.9861145 1086.59209633 C77.7008418 1085.18996124 78.42173327 1083.79095043 79.14889526 1082.39522362 C80.16733735 1080.44012251 81.16560447 1078.47588059 82.16015625 1076.50854492 C82.73386963 1075.39396408 83.30758301 1074.27938324 83.89868164 1073.13102722 C85.57322721 1068.37032591 84.51709316 1064.64460129 82.4597168 1060.17749023 C82.14318146 1059.48058075 81.82664612 1058.78367126 81.5005188 1058.06564331 C81.15358978 1057.32081696 80.80666077 1056.5759906 80.44921875 1055.80859375 C80.08327606 1055.00720978 79.71733337 1054.20582581 79.34030151 1053.38015747 C78.54577848 1051.64193725 77.74807005 1049.90517028 76.94754028 1048.16970825 C74.77595733 1043.46095652 72.62828425 1038.74128905 70.4765625 1034.0234375 C70.02747025 1033.04055252 69.57837799 1032.05766754 69.11567688 1031.04499817 C64.18880121 1020.25115892 59.37073396 1009.40958617 54.5625 998.5625 C53.77632286 996.79026677 52.99010951 995.01804959 52.20385742 993.24584961 C49.80211492 987.83076894 47.40106823 982.41537968 45 977 C41.04 968.09 37.08 959.18 33 950 C32.67 1061.54 32.34 1173.08 32 1288 C-85.81 1288 -203.62 1288 -325 1288 C-325 875.17 -325 462.34 -325 37 C-244.48 36.67 -163.96 36.34 -81 36 C-66.15 29.4 -51.3 22.8 -36 16 C-24 10.66666667 -12 5.33333333 0 0 Z " fill="#A386FE" transform="translate(481,119)"/>
<path d="M0 0 C2.8972651 3.45369349 4.59778534 7.28391481 6.35546875 11.390625 C6.66196854 12.09523865 6.96846832 12.79985229 7.28425598 13.52581787 C8.25697288 15.76509598 9.22232392 18.00746281 10.1875 20.25 C10.84782282 21.77364755 11.5086249 23.2970875 12.16992188 24.8203125 C13.78641847 28.54413652 15.39290622 32.27205194 17 36 C21.95 36.33 26.9 36.66 32 37 C31.86335938 38.97871094 31.72671875 40.95742187 31.5859375 42.99609375 C30.47161557 67.25947553 37.85483183 85.21784821 48.41992188 106.69287109 C52.29010249 114.59021511 55.84429939 122.63027766 59.43435669 130.65762329 C61.4133939 135.07044765 63.41734906 139.47193059 65.41796875 143.875 C69.6338634 153.16863101 73.79931638 162.48403888 77.9375 171.8125 C78.25625092 172.53098114 78.57500183 173.24946228 78.90341187 173.98971558 C80.55757195 177.71915805 82.21064011 181.44908344 83.86328125 185.17919922 C87.88158413 194.24732244 91.90987966 203.3110124 95.9375 212.375 C96.36183319 213.33008453 96.78616638 214.28516907 97.22335815 215.26919556 C103.30366671 228.95346595 109.40575937 242.62780043 115.5274353 256.29360962 C121.89669836 270.51343431 128.22683608 284.7504782 134.55029297 298.99072266 C140.00973536 311.28428717 145.48716776 323.56924432 151.00024414 335.83886719 C156.36374788 347.78704085 161.67027352 359.76044304 166.98284912 371.73132324 C173.35301913 386.08210456 179.77824754 400.40701654 186.2388916 414.71725464 C192.27068915 428.08483009 198.18496341 441.50118799 204.0581665 454.93908691 C210.15867298 468.88964403 216.39742539 482.77326954 222.69747925 496.63470459 C228.56390645 509.5475161 234.32297575 522.50286426 240 535.5 C246.49495459 550.36792757 253.11467292 565.1744603 259.82144165 579.94799805 C266.13525882 593.85624601 272.38299052 607.79210794 278.57470703 621.75512695 C278.87640808 622.43509232 279.17810913 623.11505768 279.48895264 623.81562805 C280.08194859 625.15525103 280.67285121 626.49580282 281.26153564 627.83732605 C282.88159572 631.52159555 284.54777876 635.17773009 286.26806641 638.81640625 C286.64332962 639.62356079 287.01859283 640.43071533 287.40522766 641.2623291 C288.12948086 642.81828286 288.86567769 644.36875223 289.61564636 645.91247559 C290.1052459 646.97383728 290.1052459 646.97383728 290.60473633 648.05664062 C290.89858719 648.67430298 291.19243805 649.29196533 291.49519348 649.92834473 C293.00971864 656.14374394 289.38525812 661.76949448 286.65478516 667.12866211 C286.20413696 668.02893631 285.75348877 668.92921051 285.28918457 669.85676575 C283.79657977 672.8340917 282.29279204 675.80562315 280.7890625 678.77734375 C279.73991055 680.8656303 278.69153254 682.95430584 277.64389038 685.04335022 C274.87667626 690.55682875 272.10027134 696.06562548 269.3215332 701.57330322 C264.90820876 710.32485129 260.50934874 719.08368016 256.10944748 727.84198189 C254.58855362 730.86642588 253.06412202 733.88906275 251.53897095 736.91136169 C246.28421667 747.34057463 241.14962018 757.81649217 236.13584328 768.36365414 C231.51930683 778.05448278 226.7297997 787.65566454 221.91339111 797.24838257 C220.31962505 800.42279402 218.72861219 803.59857343 217.13818359 806.7746582 C213.19245767 814.65295546 209.24229813 822.52902743 205.29223633 830.40515137 C201.93439028 837.10088204 198.57831516 843.79749501 195.22442627 850.49520874 C193.68044337 853.5768407 192.13400048 856.6572288 190.58740234 859.73754883 C185.31581797 870.25373786 180.15418757 880.81369775 175.10188293 891.43695068 C170.61404838 900.85347192 165.96495991 910.18599765 161.28378296 919.50759888 C159.75721876 922.54758662 158.23342203 925.58894906 156.71020508 928.63061523 C152.93143521 936.17501199 149.14822669 943.71718055 145.3651123 951.25939941 C142.14818085 957.67328736 138.93302829 964.08806143 135.72006226 970.50393677 C134.24256 973.45261572 132.7625951 976.40004875 131.2824707 979.34741211 C126.01077477 989.86262302 120.85288451 1000.42493019 115.79645824 1011.04538822 C112.49320977 1017.98238212 109.12716858 1024.88136635 105.67578125 1031.74609375 C105.15864059 1032.77896011 104.64149994 1033.81182648 104.10868835 1034.87599182 C102.51189438 1038.06413576 100.9122775 1041.25085232 99.3125 1044.4375 C98.20618908 1046.64508652 97.1000685 1048.85276844 95.99414062 1051.06054688 C93.33160708 1056.37479304 90.66677731 1061.68788227 88 1067 C87.01 1067 86.02 1067 85 1067 C84.55422607 1065.97793457 84.10845215 1064.95586914 83.64916992 1063.90283203 C74.30111183 1042.48306434 64.8577988 1021.11148956 55.1628418 999.84619141 C47.6308683 983.29056356 40.34392091 966.64622072 33 950 C32.67 1061.54 32.34 1173.08 32 1288 C-85.81 1288 -203.62 1288 -325 1288 C-325 875.17 -325 462.34 -325 37 C-244.48 36.67 -163.96 36.34 -81 36 C-66.15 29.4 -51.3 22.8 -36 16 C-24 10.66666667 -12 5.33333333 0 0 Z " fill="#727272" transform="translate(481,119)"/>
<path d="M0 0 C16.18482978 7.54789674 32.13948231 15.53104728 48.09179688 23.55615234 C60.46377644 29.77660952 72.85934846 35.92491957 85.36836243 41.86540222 C96.80534807 47.3105384 108.117389 53.00451879 119.4375 58.6875 C121.64508652 59.79381092 123.85276844 60.8999315 126.06054688 62.00585938 C131.37479304 64.66839292 136.68788227 67.33322269 142 70 C140.34390377 73.31219245 136.68542218 74.06939418 133.41015625 75.46484375 C132.21730263 75.98298645 132.21730263 75.98298645 131.00035095 76.51159668 C129.26745329 77.263799 127.53330894 78.01313409 125.7980957 78.75997925 C121.14213366 80.76411017 116.49488221 82.78821142 111.84765625 84.8125 C110.88107086 85.23309189 109.91448547 85.65368378 108.91860962 86.08702087 C102.00135093 89.10493154 95.11565216 92.18763938 88.24609375 95.3125 C87.29783218 95.74373672 86.34957062 96.17497345 85.37257385 96.61927795 C81.67718158 98.30182173 77.98286357 99.986617 74.29226685 101.67965698 C71.7381628 102.8512868 69.18171905 104.01768417 66.625 105.18359375 C65.88281723 105.52660522 65.14063446 105.8696167 64.3759613 106.22302246 C59.35223146 108.50865317 54.26571291 110.3493993 49 112 C40.71582535 94.48024065 32.79594103 76.82087594 25.04785156 59.05834961 C21.03811056 49.87447896 16.98614947 40.7126147 12.84765625 31.5859375 C12.42851456 30.66063232 12.00937286 29.73532715 11.57752991 28.78198242 C9.55454292 24.31888706 7.52470661 19.85907111 5.4855957 15.40332031 C4.75844336 13.80281748 4.03146433 12.20223589 3.3046875 10.6015625 C2.96812637 9.8723056 2.63156525 9.14304871 2.2848053 8.39169312 C0.94079754 5.4201737 0 3.30087017 0 0 Z " fill="#727273" transform="translate(616,1295)"/>
<path d="M0 0 C3.25040564 3.77760095 4.96541007 8.12750437 6.9140625 12.65625 C7.47497086 13.94166687 7.47497086 13.94166687 8.04721069 15.25305176 C9.24475672 17.9999115 10.43516051 20.74979447 11.625 23.5 C12.78979889 26.18093262 13.95612195 28.86119383 15.12347412 31.54101562 C15.90019638 33.32539845 16.67514172 35.11055581 17.44830322 36.89648438 C19.45672468 41.52248783 21.50649305 46.12382452 23.62792969 50.69921875 C24.05036957 51.61546021 24.47280945 52.53170166 24.90805054 53.47570801 C25.71855168 55.22724396 26.5370937 56.97508747 27.36465454 58.71862793 C27.72562225 59.50048462 28.08658997 60.28234131 28.45849609 61.08789062 C28.7811142 61.77322876 29.1037323 62.45856689 29.43612671 63.16467285 C30 65 30 65 29 68 C27.37997437 69.02583313 27.37997437 69.02583313 25.24755859 69.9543457 C24.44572144 70.30980972 23.64388428 70.66527374 22.81774902 71.0315094 C21.93687622 71.40911911 21.05600342 71.78672882 20.1484375 72.17578125 C19.23388794 72.57808456 18.31933838 72.98038788 17.3770752 73.3948822 C14.38059975 74.71063011 11.37794225 76.01158768 8.375 77.3125 C5.29117007 78.66124297 2.20883075 80.01335462 -0.87350464 81.36550903 C-2.94090578 82.2719857 -5.00888157 83.17715285 -7.0774231 84.08102417 C-13.33440064 86.81738959 -19.56978117 89.59547251 -25.78125 92.43359375 C-26.5075058 92.76502884 -27.2337616 93.09646393 -27.98202515 93.4379425 C-30.68714671 94.6738539 -33.39149841 95.91129532 -36.09161377 97.15811157 C-37.89484695 97.99032633 -39.70124241 98.81567906 -41.5078125 99.640625 C-42.50441895 100.09985352 -43.50102539 100.55908203 -44.52783203 101.03222656 C-47 102 -47 102 -50 102 C-48.32516187 96.22566518 -45.6493423 91.06261765 -42.94140625 85.72265625 C-42.43761948 84.72028427 -41.9338327 83.71791229 -41.41477966 82.68516541 C-39.80115673 79.47567863 -38.18224756 76.26889961 -36.5625 73.0625 C-29.36981488 58.80424806 -22.28427823 44.50927879 -15.42651367 30.08666992 C-12.48110477 23.89639281 -9.45080434 17.75160214 -6.375 11.625 C-5.60349609 10.07619141 -5.60349609 10.07619141 -4.81640625 8.49609375 C-1.12698413 1.12698413 -1.12698413 1.12698413 0 0 Z " fill="#727273" transform="translate(961,1195)"/>
</svg>
