<svg preserveAspectRatio="none" width="100%" height="100%" overflow="visible" style="display: block;" viewBox="0 0 39.3052 39.3052" fill="none" xmlns="http://www.w3.org/2000/svg">
<path id="Vector" d="M19.6526 0C8.79864 0 0 8.79864 0 19.6526C0 30.5066 8.79864 39.3052 19.6526 39.3052C30.5066 39.3052 39.3052 30.5066 39.3052 19.6526C39.3052 8.79864 30.5066 0 19.6526 0ZM14.8418 27.7982H10.8622V14.9913H14.8418V27.7982ZM12.8274 13.4191C11.5705 13.4191 10.7578 12.5285 10.7578 11.4272C10.7578 10.3033 11.595 9.4394 12.8786 9.4394C14.1622 9.4394 14.9483 10.3033 14.9728 11.4272C14.9728 12.5285 14.1622 13.4191 12.8274 13.4191ZM29.3766 27.7982H25.3969V20.7008C25.3969 19.0487 24.8196 17.9269 23.3805 17.9269C22.2812 17.9269 21.6281 18.6864 21.3395 19.4172C21.233 19.6772 21.2064 20.0457 21.2064 20.4121V27.7962H17.2247V19.0753C17.2247 17.4765 17.1735 16.1397 17.1203 14.9892H20.5779L20.7601 16.7682H20.84C21.364 15.933 22.6476 14.7006 24.7951 14.7006C27.4134 14.7006 29.3766 16.455 29.3766 20.2258V27.7982Z" fill="var(--fill-0, black)"/>
</svg>
