<svg preserveAspectRatio="none" width="100%" height="100%" overflow="visible" style="display: block;" viewBox="0 0 37.2326 40.553" fill="none" xmlns="http://www.w3.org/2000/svg">
<path id="Vector" fill-rule="evenodd" clip-rule="evenodd" d="M28.0789 1.04482C21.8467 -0.348275 15.3839 -0.348275 9.15174 1.04482L8.48023 1.19339C6.72673 1.58428 5.11611 2.45416 3.82771 3.70619C2.5393 4.95823 1.62367 6.54328 1.18274 8.28487C-0.394246 14.5101 -0.394246 21.0303 1.18274 27.2556C1.60328 28.9165 2.45599 30.4365 3.65421 31.6612C4.85243 32.8858 6.35347 33.7715 8.00482 34.2282L8.92593 39.7271C8.95533 39.9017 9.03101 40.0652 9.14508 40.2007C9.25915 40.3361 9.40744 40.4385 9.57451 40.4971C9.74158 40.5558 9.92132 40.5686 10.095 40.5342C10.2687 40.4998 10.43 40.4194 10.5621 40.3015L15.9719 35.4623C20.0328 35.7074 24.108 35.3827 28.0789 34.4976L28.7524 34.349C30.5059 33.9582 32.1165 33.0883 33.4049 31.8362C34.6933 30.5842 35.6089 28.9992 36.0499 27.2576C37.6268 21.0323 37.6268 14.5121 36.0499 8.28685C35.6088 6.545 34.6928 4.95978 33.4041 3.70772C32.1153 2.45567 30.5043 1.58593 28.7504 1.19537L28.0789 1.04482ZM10.8236 8.12442C10.4554 8.07051 10.0799 8.14463 9.75987 8.33439H9.73214C8.98931 8.77018 8.31978 9.31888 7.74929 9.96464C7.27389 10.5133 7.01637 11.068 6.94903 11.6028C6.90941 11.9198 6.93714 12.2407 7.03024 12.5437L7.0659 12.5635C7.60073 14.1344 8.29799 15.6458 9.14976 17.068C10.2485 19.0654 11.6 20.9129 13.1709 22.5649L13.2185 22.6322L13.2937 22.6877L13.3393 22.7412L13.3947 22.7887C15.0527 24.3642 16.9045 25.7221 18.9055 26.8297C21.1934 28.0757 22.582 28.664 23.4159 28.9096V28.9215C23.6596 28.9968 23.8814 29.0304 24.1053 29.0304C24.8159 28.9795 25.4886 28.6906 26.0148 28.2104C26.6586 27.6399 27.2033 26.9684 27.6272 26.2216V26.2077C28.0254 25.455 27.8907 24.7458 27.3162 24.2645C26.1633 23.2551 24.9155 22.3595 23.5902 21.5903C22.7028 21.109 21.8015 21.4002 21.437 21.8874L20.6586 22.87C20.2584 23.3572 19.5334 23.2899 19.5334 23.2899L19.5136 23.3018C14.1039 21.9211 12.6598 16.444 12.6598 16.444C12.6598 16.444 12.5925 15.6992 13.0937 15.3189L14.0682 14.5345C14.5357 14.1542 14.8606 13.2549 14.3594 12.3674C13.592 11.0431 12.6984 9.79594 11.6912 8.64341C11.4709 8.37278 11.1623 8.18834 10.8196 8.12244M19.9633 5.74343C19.7006 5.74343 19.4487 5.84778 19.2629 6.03352C19.0772 6.21926 18.9729 6.47118 18.9729 6.73386C18.9729 6.99654 19.0772 7.24846 19.2629 7.4342C19.4487 7.61994 19.7006 7.72429 19.9633 7.72429C22.4691 7.72429 24.549 8.54238 26.1951 10.1112C27.0409 10.9689 27.7005 11.9851 28.1324 13.0984C28.5662 14.2136 28.7643 15.4041 28.7128 16.5966C28.7073 16.7266 28.7275 16.8565 28.7722 16.9788C28.817 17.101 28.8853 17.2133 28.9734 17.3091C29.1514 17.5026 29.3989 17.6176 29.6616 17.6286C29.9243 17.6396 30.1806 17.5459 30.3741 17.3679C30.5676 17.19 30.6826 16.9424 30.6936 16.6798C30.7527 15.213 30.5093 13.7499 29.9785 12.3813C29.4453 11.0058 28.6333 9.75538 27.5936 8.70878L27.5738 8.68897C25.5315 6.73782 22.9465 5.74343 19.9633 5.74343ZM19.8959 8.99996C19.6333 8.99996 19.3813 9.10431 19.1956 9.29005C19.0099 9.47579 18.9055 9.72771 18.9055 9.99039C18.9055 10.2531 19.0099 10.505 19.1956 10.6907C19.3813 10.8765 19.6333 10.9808 19.8959 10.9808H19.9296C21.7362 11.1096 23.0514 11.7118 23.9725 12.7002C24.9174 13.7184 25.4067 14.9841 25.3691 16.549C25.363 16.8117 25.4616 17.066 25.643 17.256C25.8245 17.4461 26.074 17.5562 26.3367 17.5622C26.5994 17.5683 26.8537 17.4697 27.0437 17.2883C27.2337 17.1068 27.3439 16.8573 27.3499 16.5946C27.3975 14.5404 26.7359 12.7676 25.4245 11.3532V11.3493C24.0835 9.91116 22.2433 9.15051 20.0287 9.00194L19.995 8.99798L19.8959 8.99996ZM19.8583 12.3179C19.7258 12.3062 19.5922 12.3213 19.4656 12.3624C19.3391 12.4035 19.2221 12.4696 19.1216 12.5569C19.0212 12.6441 18.9394 12.7508 18.881 12.8704C18.8227 12.99 18.7891 13.1201 18.7822 13.253C18.7752 13.3858 18.7952 13.5188 18.8407 13.6438C18.8863 13.7688 18.9566 13.8833 19.0474 13.9806C19.1383 14.0778 19.2478 14.1558 19.3694 14.2097C19.491 14.2637 19.6223 14.2927 19.7553 14.2948C20.5833 14.3384 21.1122 14.588 21.445 14.9227C21.7797 15.2595 22.0293 15.8003 22.0749 16.6461C22.0774 16.779 22.1066 16.9101 22.1608 17.0314C22.215 17.1528 22.293 17.2621 22.3903 17.3526C22.4876 17.4432 22.6022 17.5133 22.7271 17.5586C22.8521 17.604 22.9849 17.6238 23.1177 17.6167C23.2504 17.6097 23.3804 17.576 23.4998 17.5176C23.6193 17.4593 23.7258 17.3775 23.8129 17.2771C23.9001 17.1767 23.9662 17.0598 24.0072 16.9334C24.0482 16.8069 24.0634 16.6735 24.0518 16.5411C23.9884 15.3526 23.616 14.3027 22.8534 13.5302C22.0868 12.7577 21.0429 12.3813 19.8583 12.3179Z" fill="var(--fill-0, black)"/>
</svg>
