<svg preserveAspectRatio="none" width="100%" height="100%" overflow="visible" style="display: block;" viewBox="0 0 39.6192 39.6182" fill="none" xmlns="http://www.w3.org/2000/svg">
<path id="Vector" d="M21.8461 0C24.0745 0.00594258 25.2056 0.0178278 26.1822 0.0455598L26.5665 0.0594258C27.0102 0.0752727 27.4479 0.0950812 27.9768 0.118852C30.0845 0.217895 31.5226 0.55068 32.7844 1.03995C34.0917 1.54309 35.1931 2.22451 36.2945 3.32389C37.3021 4.31379 38.0816 5.51169 38.5784 6.83397C39.0677 8.09578 39.4005 9.53388 39.4995 11.6435C39.5233 12.1704 39.5431 12.6082 39.5589 13.0539L39.5708 13.4382C39.6005 14.4127 39.6124 15.5438 39.6164 17.7723L39.6183 19.25V21.8449C39.6232 23.2898 39.608 24.7346 39.5728 26.1791L39.5609 26.5633C39.5451 27.009 39.5252 27.4468 39.5015 27.9737C39.4024 30.0833 39.0657 31.5195 38.5784 32.7833C38.0816 34.1055 37.3021 35.3034 36.2945 36.2933C35.3046 37.301 34.1067 38.0804 32.7844 38.5773C31.5226 39.0665 30.0845 39.3993 27.9768 39.4984L26.5665 39.5578L26.1822 39.5697C25.2056 39.5974 24.0745 39.6113 21.8461 39.6152L20.3683 39.6172H17.7754C16.3299 39.6223 14.8844 39.6071 13.4393 39.5717L13.055 39.5598C12.5848 39.542 12.1146 39.5215 11.6446 39.4984C9.53699 39.3993 8.09889 39.0665 6.8351 38.5773C5.51353 38.0802 4.31632 37.3008 3.32699 36.2933C2.31863 35.3036 1.53849 34.1057 1.04108 32.7833C0.551806 31.5214 0.219021 30.0833 0.119978 27.9737L0.0605525 26.5633L0.0506484 26.1791C0.0141333 24.7347 -0.00237564 23.2898 0.00112671 21.8449V17.7723C-0.00435611 16.3274 0.0101718 14.8826 0.0447058 13.4382L0.0585718 13.0539C0.0744187 12.6082 0.0942272 12.1704 0.117998 11.6435C0.217041 9.53388 0.549825 8.09776 1.0391 6.83397C1.53767 5.51115 2.31918 4.3132 3.32897 3.32389C4.31773 2.31671 5.51423 1.53729 6.8351 1.03995C8.09889 0.55068 9.53501 0.217895 11.6446 0.118852C12.1715 0.0950812 12.6113 0.0752727 13.055 0.0594258L13.4393 0.0475405C14.8837 0.0123461 16.3286 -0.00284194 17.7734 0.00198072L21.8461 0ZM19.8097 9.90431C17.183 9.90431 14.6638 10.9478 12.8063 12.8052C10.9489 14.6626 9.90543 17.1818 9.90543 19.8086C9.90543 22.4354 10.9489 24.9546 12.8063 26.812C14.6638 28.6694 17.183 29.7129 19.8097 29.7129C22.4365 29.7129 24.9557 28.6694 26.8131 26.812C28.6706 24.9546 29.714 22.4354 29.714 19.8086C29.714 17.1818 28.6706 14.6626 26.8131 12.8052C24.9557 10.9478 22.4365 9.90431 19.8097 9.90431ZM19.8097 13.866C20.5901 13.8659 21.3629 14.0195 22.0839 14.318C22.805 14.6165 23.4602 15.0541 24.0121 15.6059C24.564 16.1576 25.0018 16.8126 25.3006 17.5336C25.5993 18.2545 25.7532 19.0272 25.7533 19.8076C25.7534 20.588 25.5999 21.3608 25.3013 22.0818C25.0028 22.8029 24.5652 23.458 24.0135 24.01C23.4617 24.5619 22.8067 24.9997 22.0858 25.2985C21.3648 25.5972 20.5921 25.7511 19.8117 25.7512C18.2356 25.7512 16.7241 25.1251 15.6097 24.0107C14.4952 22.8962 13.8691 21.3847 13.8691 19.8086C13.8691 18.2325 14.4952 16.721 15.6097 15.6066C16.7241 14.4921 18.2356 13.866 19.8117 13.866M30.2112 6.93301C29.5545 6.93301 28.9247 7.19389 28.4604 7.65824C27.996 8.12259 27.7352 8.75239 27.7352 9.40909C27.7352 10.0658 27.996 10.6956 28.4604 11.1599C28.9247 11.6243 29.5545 11.8852 30.2112 11.8852C30.8679 11.8852 31.4977 11.6243 31.9621 11.1599C32.4264 10.6956 32.6873 10.0658 32.6873 9.40909C32.6873 8.75239 32.4264 8.12259 31.9621 7.65824C31.4977 7.19389 30.8679 6.93301 30.2112 6.93301Z" fill="var(--fill-0, black)"/>
</svg>
