<svg preserveAspectRatio="none" width="100%" height="100%" overflow="visible" style="display: block;" viewBox="0 0 36.9761 38.2966" fill="none" xmlns="http://www.w3.org/2000/svg">
<path id="Vector" d="M20.799 13.4038H33.5096L20.799 2.87225V13.4038ZM4.62201 0H23.11L36.9761 11.489V34.467C36.9761 35.4827 36.4891 36.4568 35.6223 37.175C34.7555 37.8932 33.5799 38.2967 32.3541 38.2967H4.62201C3.39618 38.2967 2.22055 37.8932 1.35376 37.175C0.48696 36.4568 0 35.4827 0 34.467V3.82966C0 1.7042 2.05679 0 4.62201 0ZM23.11 34.467V32.5521C23.11 30.0054 16.9397 28.7225 13.866 28.7225C10.7924 28.7225 4.62201 30.0054 4.62201 32.5521V34.467H23.11ZM13.866 19.1483C12.6402 19.1483 11.4646 19.5518 10.5978 20.27C9.73098 20.9882 9.24402 21.9623 9.24402 22.978C9.24402 23.9937 9.73098 24.9678 10.5978 25.686C11.4646 26.4042 12.6402 26.8077 13.866 26.8077C15.0919 26.8077 16.2675 26.4042 17.1343 25.686C18.0011 24.9678 18.488 23.9937 18.488 22.978C18.488 21.9623 18.0011 20.9882 17.1343 20.27C16.2675 19.5518 15.0919 19.1483 13.866 19.1483Z" fill="var(--fill-0, black)"/>
</svg>
