<svg preserveAspectRatio="none" width="100%" height="100%" overflow="visible" style="display: block;" viewBox="0 0 39.6172 38.6575" fill="none" xmlns="http://www.w3.org/2000/svg">
<path id="Vector" d="M19.8086 0C17.2073 0 14.6315 0.512365 12.2282 1.50784C9.82489 2.50332 7.64121 3.96241 5.80181 5.80181C2.08697 9.51664 0 14.555 0 19.8086C0 28.564 5.68507 35.9922 13.5491 38.6268C14.5395 38.7853 14.8565 38.1712 14.8565 37.6364V34.2887C9.36947 35.4772 8.20077 31.6344 8.20077 31.6344C7.28957 29.3366 6.00201 28.7225 6.00201 28.7225C4.19943 27.4944 6.14067 27.534 6.14067 27.534C8.12153 27.6726 9.17139 29.5743 9.17139 29.5743C10.8947 32.5852 13.8066 31.6938 14.9357 31.2184C15.114 29.9308 15.629 29.0592 16.1836 28.564C11.7861 28.0688 7.17072 26.3653 7.17072 18.8182C7.17072 16.6194 7.92345 14.8565 9.21101 13.45C9.01292 12.9548 8.31962 10.8947 9.40909 8.22057C9.40909 8.22057 11.073 7.68574 14.8565 10.2411C16.4213 9.80526 18.1249 9.58737 19.8086 9.58737C21.4923 9.58737 23.1959 9.80526 24.7608 10.2411C28.5442 7.68574 30.2081 8.22057 30.2081 8.22057C31.2976 10.8947 30.6043 12.9548 30.4062 13.45C31.6938 14.8565 32.4465 16.6194 32.4465 18.8182C32.4465 26.3851 27.8113 28.049 23.394 28.5442C24.1071 29.1583 24.7608 30.3666 24.7608 32.2088V37.6364C24.7608 38.1712 25.0777 38.8051 26.0879 38.6268C33.952 35.9724 39.6172 28.564 39.6172 19.8086C39.6172 17.2073 39.1049 14.6315 38.1094 12.2282C37.1139 9.82489 35.6548 7.64121 33.8154 5.80181C31.976 3.96241 29.7923 2.50332 27.389 1.50784C24.9858 0.512365 22.4099 0 19.8086 0Z" fill="var(--fill-0, black)"/>
</svg>
